<?xml version="1.0" encoding="utf-8"?>
<!-- Generator: Adobe Illustrator 19.0.0, SVG Export Plug-In . SVG Version: 6.00 Build 0)  -->
<svg version="1.1" id="Layer_1" xmlns="http://www.w3.org/2000/svg" xmlns:xlink="http://www.w3.org/1999/xlink" x="0px" y="0px"
	 width="600px" height="600px" viewBox="0 0 600 600" style="enable-background:new 0 0 600 600;" xml:space="preserve">
<style type="text/css">
	.st0{fill:#B82744;}
</style>
<path id="color_x5F_1" class="st0" d="M561.7,386.4c-11.4-6.8-24.4-8.3-36.3-5.2l0,0c0,0-18.7,6.4-54.1-7.4
	c9.3-19.2,15.5-40.2,17.8-62.4c16.6,6.6,22.9,14,22.9,14h0c8.6,8.7,20.6,14.1,33.8,14.1c26.3,0,47.6-21.3,47.6-47.6
	c0-26.3-21.3-47.6-47.6-47.6c-13.2,0-25.2,5.4-33.8,14.1h0c0,0-6.3,7.4-22.9,14c-2.4-23.8-9.3-46.3-19.8-66.6
	c30.8-9.2,46.7-3.2,46.7-3.2l0,0c11.8,3.4,24.8,2.4,36.4-4c23-12.7,31.3-41.7,18.5-64.7c-12.7-23-41.7-31.3-64.7-18.5
	c-11.6,6.4-19.4,16.9-22.7,28.7l0,0c0,0-3.4,17.1-28.3,38.7c-11.3-15.9-25.1-29.9-40.7-41.6c25-29.8,44.9-33.1,44.9-33.1l0,0
	c11.9-2.9,22.7-10.4,29.5-21.8c13.5-22.5,6.1-51.8-16.4-65.2c-22.5-13.5-51.8-6.1-65.2,16.4C400.5,48.9,399,62,402,73.8v0
	c0,0,6.4,18.9-7.6,54.4c-21.9-12.4-46.6-20.4-72.9-23.1c6.7-17.3,14.4-23.8,14.4-23.8v0c8.7-8.6,14.1-20.6,14.1-33.8
	C350,21.3,328.7,0,302.4,0c-26.3,0-47.6,21.3-47.6,47.6c0,13.2,5.4,25.2,14.1,33.8v0c0,0,7.7,6.5,14.4,23.8
	c-24.9,2.5-48.4,9.9-69.5,21.2c-9.2-30.9-3.2-46.8-3.2-46.8h0c3.4-11.8,2.4-24.8-4-36.4c-12.7-23-41.7-31.3-64.7-18.5
	c-23,12.7-31.3,41.7-18.5,64.7c6.4,11.6,16.9,19.4,28.7,22.7l0,0c0,0,17.3,3.4,39.1,28.7c-15.4,11.4-29,25.1-40.4,40.5
	c-32.7-26.1-36.2-47.5-36.2-47.5l0,0c-2.9-11.9-10.4-22.7-21.8-29.5c-22.5-13.5-51.8-6.1-65.2,16.4C14.1,143.3,21.4,172.5,44,186
	c11.4,6.8,24.4,8.3,36.3,5.2l0,0c0,0,20.3-6.9,58.3,9.2c-12.4,22.2-20.5,47.2-22.9,73.8c-20.1-7-27.6-15.8-27.6-15.8l0,0
	c-8.6-8.7-20.6-14.1-33.8-14.1c-26.3,0-47.6,21.3-47.6,47.6c0,26.3,21.3,47.6,47.6,47.6c13.2,0,25.2-5.4,33.8-14.1l0,0
	c0,0,7.5-8.8,27.6-15.8c1.9,20.8,7.3,40.6,15.4,58.8c-34.5,11.8-52.4,5-52.4,5v0c-11.8-3.4-24.8-2.4-36.4,4
	c-23,12.7-31.3,41.7-18.5,64.7c12.7,23,41.7,31.3,64.7,18.5c11.6-6.4,19.4-16.9,22.7-28.7h0c0,0,3.7-18.6,31.6-41.5
	c12.3,19.8,28.1,37.2,46.7,51.2c-19.5,18.8-33.9,21.2-33.9,21.2l0,0c-11.9,2.9-22.7,10.4-29.5,21.8c-13.5,22.5-6.1,51.8,16.4,65.2
	c22.6,13.5,51.8,6.1,65.2-16.4c6.8-11.3,8.3-24.4,5.2-36.3l0,0c0,0-4.6-13.5,2.4-39c22.1,11.6,46.7,18.9,72.8,20.9
	c-7,29.3-19.2,39.6-19.2,39.6l0,0c-8.7,8.6-14.1,20.6-14.1,33.8c0,26.3,21.3,47.6,47.6,47.6c26.3,0,47.6-21.3,47.6-47.6
	c0-13.2-5.4-25.2-14.1-33.8l0,0c0,0-12.2-10.3-19.2-39.6c19.4-1.5,38-5.9,55.3-12.8c0.4,11.9-1.9,17.9-1.9,17.9l0,0
	c-3.4,11.8-2.4,24.8,4,36.4c12.7,23,41.7,31.3,64.7,18.5c23-12.7,31.3-41.7,18.5-64.7c-6.4-11.6-16.9-19.4-28.7-22.7l0,0
	c0,0-6.3-1.3-16.1-7.8c18.4-13.4,34.3-30,46.9-49.1c28.5,24.4,31.7,43.8,31.7,43.8h0c2.9,11.9,10.4,22.7,21.8,29.5
	c22.5,13.5,51.8,6.1,65.2-16.4C591.6,429.1,584.2,399.9,561.7,386.4z M550.7,272.6c1.9-2.5,4.4-4.6,7.2-6c2.8-1.3,6.1-1.7,8.9-0.9
	c-5.6,1.7-8.9,5.7-11,10.1c-2.1,4.4-3,9.4-3.1,14.3c0,4.9,0.9,9.9,3.1,14.3c2.1,4.4,5.4,8.4,11.1,10.1c-2.8,0.9-6.1,0.4-8.9-0.9
	c-2.9-1.3-5.3-3.5-7.2-6c-3.8-5-5.6-11.4-5.7-17.5C545.1,283.9,546.9,277.6,550.7,272.6z M520.5,141.1c0.6-3.1,1.8-6.1,3.8-8.6
	c2-2.5,4.7-4.3,7.6-4.8c-4.3,4-5.4,9.1-5.3,14c0.1,4.9,1.5,9.7,3.7,14.2c2.2,4.4,5.3,8.4,9.1,11.4c3.9,3,8.6,5.1,14.4,4.1
	c-2.1,2-5.2,3.1-8.4,3.2c-3.2,0.1-6.3-0.7-9.1-2.1c-5.7-2.8-10.1-7.6-12.9-13.2C520.5,153.8,519.3,147.3,520.5,141.1z M432.3,44.8
	c0.4-3.1,1.7-6.1,3.9-8.1c-1.5,5.7,0.2,10.6,2.8,14.7c2.7,4.1,6.4,7.5,10.6,10.1c4.1,2.5,8.9,4.4,13.8,4.9c4.9,0.5,10-0.2,14.4-4.1
	c-0.8,2.8-2.8,5.4-5.4,7.1c-2.6,1.7-5.7,2.7-8.9,3c-6.3,0.6-12.6-1.1-17.9-4.4c-5.2-3.2-9.7-8.1-11.9-14
	C432.5,51.1,432,47.9,432.3,44.8z M181.4,57.6c-2.4,5.8-7,10.6-12.4,13.7c-5.4,3.1-11.7,4.7-18,3.9c-3.1-0.4-6.2-1.5-8.8-3.3
	c-2.6-1.8-4.6-4.4-5.2-7.3c4.3,4,9.4,4.9,14.3,4.5c4.9-0.4,9.6-2.1,13.9-4.5c4.3-2.5,8.1-5.7,10.9-9.8c2.7-4,4.6-8.9,3.2-14.6
	c2.1,2,3.4,5,3.7,8.2C183.3,51.5,182.6,54.7,181.4,57.6z M72.2,146.4c-3.1,5.3-7.9,9.9-13.8,12.2c-2.9,1.2-6.1,1.8-9.3,1.5
	c-3.1-0.3-6.2-1.6-8.1-3.8c5.7,1.4,10.6-0.4,14.6-3.1c4.1-2.8,7.4-6.5,9.9-10.8c2.5-4.2,4.2-9,4.6-13.9c0.4-4.9-0.4-10-4.4-14.3
	c2.8,0.7,5.4,2.7,7.2,5.3c1.8,2.6,2.8,5.7,3.2,8.8C77,134.7,75.4,141,72.2,146.4z M48.3,310.8c-1.9,2.5-4.4,4.6-7.2,6
	c-2.8,1.3-6.1,1.7-8.9,0.9c5.6-1.7,8.9-5.7,11-10.1c2.1-4.4,3-9.4,3.1-14.3c0-4.9-0.9-9.9-3.1-14.3c-2.1-4.4-5.4-8.4-11.1-10.1
	c2.8-0.9,6.1-0.4,8.9,0.9c2.9,1.3,5.3,3.5,7.2,6c3.8,5,5.6,11.4,5.7,17.5C54,299.4,52.1,305.8,48.3,310.8z M79,430.4
	c-0.6,3.1-1.8,6.1-3.8,8.6c-2,2.5-4.7,4.3-7.6,4.8c4.3-4,5.4-9.1,5.3-14c-0.1-4.9-1.5-9.7-3.7-14.2c-2.2-4.4-5.3-8.4-9.1-11.4
	c-3.9-3-8.6-5.1-14.4-4.1c2.1-2,5.2-3.1,8.4-3.2c3.2-0.1,6.3,0.7,9.1,2.1c5.7,2.8,10.1,7.6,12.9,13.2C79,417.7,80.2,424.2,79,430.4z
	 M182.7,530.5c-0.4,3.1-1.7,6.1-3.9,8.1c1.5-5.7-0.2-10.6-2.8-14.7c-2.7-4.1-6.4-7.5-10.6-10.1c-4.1-2.5-8.9-4.4-13.8-4.9
	c-4.9-0.5-10,0.2-14.4,4.1c0.8-2.8,2.8-5.4,5.4-7.1c2.6-1.7,5.7-2.7,8.9-3c6.3-0.6,12.6,1.1,17.9,4.4c5.2,3.2,9.7,8.1,11.9,14
	C182.6,524.1,183.1,527.4,182.7,530.5z M420.7,501.9c5.4-3.1,11.7-4.7,18-3.9c3.1,0.4,6.2,1.5,8.8,3.3c2.6,1.8,4.6,4.4,5.2,7.3
	c-4.3-4-9.4-4.8-14.3-4.5c-4.9,0.4-9.6,2.1-13.9,4.5c-4.3,2.5-8.1,5.7-10.9,9.8c-2.7,4-4.6,8.9-3.2,14.6c-2.1-2-3.4-5-3.7-8.2
	c-0.3-3.1,0.4-6.3,1.5-9.2C410.8,509.7,415.4,505,420.7,501.9z M301.1,460.7c-0.3,0-0.7,0-1,0c-1.9-5.6-4.4-10.2-7.4-14.1
	c-13.9-18.2-37.8-20.2-53.5-21.4c-3.8-0.3-7.1-0.6-9.7-1c-0.1,0-0.2-0.1-0.4-0.1c-8.5-1.6-9.9-5.9-12.2-13.1
	c-0.3-0.9-0.6-1.7-0.9-2.7c-1.9-5.7-4.8-12.3-12-18.6c-4.9-4.2-11.1-6.4-18.6-6.4c-8.2,0-16.5,2.6-23,5.3c-2-2.8-3.8-5.6-5.6-8.5
	c-3.6-5.8-6.8-11.8-9.7-18c-0.6-1.3-1.2-2.5-1.7-3.8c0.2-5.6-0.6-10.9-2.6-15.7c-6-15.1-2.5-29.1,5.9-39.9
	c5.8-7.6,14-13.6,23.1-17.4c0.3-0.1,0.6-0.2,0.8-0.3c4.7-1.4,9.9-2.3,15-2.3c6.7,0,22.7,1.6,26.9,16.1c3.5,11.8,8.8,20.4,13.1,25.8
	c1.4,1.9,2.9,3.8,4.7,5.7l0.4,0.5c3.1,3.5,7.3,8.2,8.6,12.4c1.2,4.1,1.6,8.4,2.1,12.9c0.3,2.7,0.6,5.6,1,8.3
	c1.1,6.2,3.3,12.8,6.8,20.2c3.4,7.1,7.3,14.3,14.5,16.9c1.2,0.4,2.4,0.6,3.5,0.6c0,0,0,0,0,0c3.8,0,8.9-2.4,11.8-13.9
	c1-3.9,1.5-7.9,2.1-11.7c0.3-2.3,0.6-4.6,1-6.9l0.1-0.6c0.6-3.4,1.2-6.9,2.5-9.9c1.4-3.3,4.8-5.3,8.3-7.3c1-0.6,1.9-1.1,2.8-1.7
	c5-3.2,10.6-7.3,14-13.6c1.8-3.4,7.4-15.2,2.2-24c-3.8-6.3-10.5-9-16.5-11c-3.8-1.3-7.8-2.7-10.8-4.7c-1.8-1.2-3.4-2.8-5.1-5.1
	c-0.9-1.1-1.7-2.3-2.6-3.6c-0.7-1-1.4-2.1-2.2-3.1c-6.9-9.3-17.7-15.1-28.2-15.1c-1.6,0-3.1,0.2-4.6,0.4c-4.5,0.5-8.8,1.6-13,2.8
	c-5.1,1.4-9.9,2.7-14.8,2.7c-2.5,0-4.9-0.3-7.2-1.1c-9.2-2.9-13.5-13.6-15.4-21.5c-0.1-1.1-0.3-2.2-0.4-3.3
	c-0.9-6.8-1.7-13.2,0.7-19.3c3.6-9.1,9.8-16.2,17.1-19.4c3.2-1.4,6.6-2.1,10.8-2.1c3.9,0,7.9,0.6,12,1.2c4.2,0.6,8.5,1.3,12.8,1.3
	c4.3,0,8.1-0.7,11.6-2c25.4-9.8,20.4-34,16.5-53.5l-0.4-2.1c-2.1-10.6-1.7-20.7,1.3-30.3c4.2-0.6,8.5-1.1,12.8-1.4
	c4.2-0.3,8.4-0.5,12.6-0.5c5.1,0,10.2,0.2,15.2,0.7c24.2,2.2,47,9.4,67.2,20.8c-0.3,3.2-0.5,6.2-0.5,8.9c-0.1,3.4,0,6.5,0.3,9.3
	c0.7,7.1,2.5,11.9,5.5,14.5c4,3.5,8,5.2,11.5,6.8c6.7,2.9,11.6,5,13.6,18.5c0.9,5.9,0.2,11.6-0.5,17.6c-0.2,1.4-0.3,2.8-0.5,4.2
	c-0.7,7-0.6,15.5,6.7,19.9c4.1,2.5,8.7,3.3,13.2,4.2c5.2,1,10,1.9,13.7,5.1c2.4,2.1,3.4,4.9,2.8,7.8c-0.7,3.2-3.4,5.9-7,7
	c-8.1,2.5-16.6,2.9-25.6,3.3c-7.3,0.4-14.9,0.7-22.1,2.3c-5.1,1.1-12.3,3.1-17.1,8.1c-10.2,10.7-5,21.3-0.3,30.6
	c3.1,6.2,6,12.1,4.7,17.8c-1.2,5.3-4.1,10.5-6.9,15.6c-5.5,10.1-11.2,20.5-2.7,30c3.1,3.4,7.2,5.1,12.4,5.1c4,0,8-1,11.6-1.9
	c2.7-0.7,5.2-1.3,6.9-1.3c0.8,0,1.4,0.1,1.6,0.4c0.1,0.1,0.5,0.7,0.5,2.4c0,2.9-0.9,7.5-1.9,12.8c-1.9,10.4-4.4,24.1-2.7,35.7
	c-1.3,1-2.6,1.9-4,2.8c-8.7,6-17.9,11.1-27.7,15.4c-17.3,7.6-36.1,12.4-55.9,13.9C309.3,460.5,305.2,460.7,301.1,460.7z
	 M182.9,201.3c-6.2,8.1-11.8,16.6-16.9,25.5c-5.2,8.9-9.7,18.3-14.3,28c0.4-10.8,2.9-21.4,6.9-31.5c1.4-3.5,3-7,4.7-10.4
	c2.9-5.6,6.2-11,9.9-16.1c0.5-0.6,0.9-1.3,1.4-1.9c6.6-8.7,14.4-16.5,23.1-23c3.5-2.6,7.1-5,10.9-7.2c5.6-3.2,11.5-5.9,17.7-7.9
	c-5,4.3-9.9,8.6-14.6,13c-2.9,2.7-5.8,5.4-8.6,8.3C195.8,185.5,189.1,193.2,182.9,201.3z M269.2,357.9c0.4-2.6,1.3-5.3,2.8-7.8
	c1.5-2.4,3.6-4.5,5.8-6.1c2.2-1.6,4.6-2.8,6.9-3.9c2.1-0.9,4.1-1.9,6-3.1c1.9-1.2,3.7-2.5,5.3-4.2c1.6-1.6,3-3.5,4-5.9
	c0.5,2.6-0.2,5.2-1.3,7.7c-1.1,2.4-2.8,4.6-4.8,6.4c-2,1.8-4.2,3.4-6.5,4.6c-2,1.1-4,2.3-5.7,3.6c-3.5,2.5-5.9,5.6-7.5,9.9
	c-1.6,4.2-2.6,9.1-4.1,13.9C268.9,368.2,268.4,363.2,269.2,357.9z M430.9,290.1l-3.6,0.3l-7.6,0.7l-11.3,1
	c-3.8,0.3-7.6,0.6-11.7,0.7c3.2-2.7,6.9-4.4,10.6-5.7c3.8-1.3,7.7-2.1,11.7-2.5c2.7-0.3,5.5-0.3,8.2-0.1c1.3,0.1,2.5,0.2,3.8,0.4
	c4,0.6,7.9,1.7,11.5,3.6C438.5,289.3,434.7,289.7,430.9,290.1z M436.7,201.4c-0.7-1.1-1.5-2.1-2.2-3.2c-3.5-5-7.2-9.9-11.1-14.7
	c-4.7-5.8-9.8-11.2-15.3-16.6c7.1,3.1,13.4,7.8,19.1,13c4.7,4.5,9,9.4,12.8,14.6c0.7,1,1.5,2,2.2,3c3.3,4.8,6.2,9.7,8.8,14.8
	c0.9,1.7,1.7,3.5,2.5,5.2c3.2,7,5.9,14.2,7.5,21.7l-12-19.3c-1.1-1.8-2.2-3.5-3.4-5.3C442.7,210.4,439.7,205.8,436.7,201.4z
	 M278.2,34c-1.3-2.8-1.7-6.1-0.9-8.9c1.7,5.6,5.7,8.9,10.1,11c4.4,2.1,9.4,3,14.3,3.1c4.9,0,9.9-0.9,14.3-3.1
	c4.4-2.1,8.4-5.4,10.1-11.1c0.9,2.8,0.4,6.1-0.9,8.9c-1.3,2.9-3.5,5.3-6,7.2c-5,3.8-11.4,5.6-17.5,5.7c-6.2,0-12.5-1.8-17.5-5.6
	C281.7,39.3,279.6,36.9,278.2,34z M319.3,557.1c2.5,1.9,4.6,4.4,6,7.2c1.3,2.8,1.7,6.1,0.9,8.9c-1.7-5.6-5.7-8.9-10.1-11
	c-4.4-2.1-9.4-3-14.3-3.1c-4.9,0-9.9,0.9-14.3,3.1c-4.4,2.1-8.4,5.4-10.1,11.1c-0.9-2.8-0.4-6.1,0.9-8.9c1.3-2.9,3.5-5.3,6-7.2
	c5-3.8,11.4-5.6,17.5-5.7C308,551.5,314.3,553.3,319.3,557.1z M550.4,416.9c-4.1,2.8-7.4,6.5-9.9,10.8c-2.5,4.2-4.2,9-4.6,13.9
	c-0.4,4.9,0.4,10,4.4,14.3c-2.8-0.7-5.4-2.7-7.2-5.3c-1.8-2.6-2.8-5.7-3.2-8.8c-0.8-6.3,0.9-12.6,4-18c3.1-5.3,7.9-9.9,13.8-12.2
	c2.9-1.2,6.1-1.8,9.3-1.5c3.1,0.3,6.2,1.6,8.1,3.8C559.3,412.4,554.4,414.3,550.4,416.9z M371.9,180.4c-2.3-3.7-3.3-8.1-3.2-12.2
	c0.2-4.1,1.4-8.1,4-11.3c1.1,3.9,2,7.3,3.1,10.4c1.1,3.1,2.3,5.8,3.9,8.3c1.5,2.5,3.3,4.8,5.6,7.1c2.3,2.3,5,4.5,8,7.3
	c-4,0.9-8.1,0.4-12-1.3C377.6,187.1,374.2,184.1,371.9,180.4z M293.9,182.8c1.5,4.9,1.4,10.1,0.4,15.1c-1,5-3,9.9-6.1,14.2
	c-3.1,4.3-7.3,7.9-12.2,10c-4.8,2.2-10.2,2.9-15.2,1.7c4.4-2.6,8.2-5,11.4-7.9c3.3-2.8,6-5.9,8.5-9.3c2.5-3.4,4.7-7.1,6.8-11.1
	C289.6,191.5,291.6,187.3,293.9,182.8z M281.8,266.9c3.3,4.1,5.4,9.1,5.5,14.3c-3.7-3.6-7-6.6-10.5-9.1c-3.5-2.4-7.2-4.3-11.1-5.9
	c-3.9-1.5-8.1-2.7-12.5-3.7c-4.4-1-9-1.9-13.9-2.9c4.4-2.7,9.4-3.9,14.5-4.3c5.1-0.3,10.3,0.4,15.3,2.3
	C273.9,259.6,278.5,262.8,281.8,266.9z M220.4,382.3c2.9,4.6,4.2,9.9,3.9,15.1c-3.3-4-6.2-7.6-9.5-10.5c-3.2-2.9-6.7-5.1-10.5-6.7
	c-3.8-1.6-8-2.7-12.4-3.4c-4.5-0.7-9.2-1.2-14.3-1.6c4.2-3.2,9.2-4.9,14.4-5.6c5.2-0.6,10.8,0,15.9,2.2
	C213,373.8,217.6,377.7,220.4,382.3z M370.3,396c-0.9-0.3-1.7-0.6-2.5-1.1c-1.8-0.9-3.3-2.2-4.7-3.7c-0.8-0.9-1.6-1.9-2.1-3
	c-1.5-2.8-2.2-6-1.3-9.2c2.7,1.8,4.8,3.2,6.8,4.5c2,1.3,3.8,2.3,5.7,3.3c1.9,1,3.8,1.9,6,2.9c2.2,1,4.6,2.1,7.5,3.7
	c-2.5,2.2-5.4,3.2-8.5,3.4C374.8,397,372.5,396.7,370.3,396z"/>
</svg>
